<svg xmlns:dc="http://purl.org/dc/elements/1.1/" xmlns:cc="http://creativecommons.org/ns#" xmlns:rdf="http://www.w3.org/1999/02/22-rdf-syntax-ns#" xmlns:svg="http://www.w3.org/2000/svg" xmlns="http://www.w3.org/2000/svg" version="1.2" width="100%" height="100%" viewBox="0 0 630 630">
  <style>
	.style0{
		fill:	#0050a1;
	}
	.style1{
		fill:	#fdcc00;
	}
	.style2{
		font-size:	102px;
		font-weight:	bold;
		text-align:	center;
		line-height:	125%;
		letter-spacing:	0px;
		word-spacing:	0px;
		text-anchor:	middle;
		fill:	#fdcc00;
		font-family:	TeXGyreHeros;
		-inkscape-font-specification:	TeXGyreHeros Bold;
	}
	.style3{
		font-size:	94px;
		fill:	#fdcc00;
	}
</style><metadata>
    <rdf:RDF>
      <cc:Work rdf:about="">
        <dc:format>image/svg+xml</dc:format>
        <dc:type rdf:resource="http://purl.org/dc/dcmitype/StillImage"/>
        <dc:title/>
      </cc:Work>
    </rdf:RDF>
  </metadata>
  <defs/>
  <g/>
  <g>
    <rect width="630" height="630" x="0" y="0" class="style0"/>
    <g>
      <path d="m 165.65 526.474 48.212 -29.177 C 223.164 513.788 231.625 527.74 251.92 527.74 c 19.454 0 31.719 -7.61 31.719 -37.21 l 0 -201.3 59.204 0 0 202.137 c 0 61.32 -35.944 89.231 -88.385 89.231 -47.361 0 -74.853 -24.529 -88.808 -54.13" class="style1"/>
      <path d="m 375 520.13 48.206 -27.911 c 12.69 20.724 29.183 35.947 58.361 35.947 24.531 0 40.174 -12.265 40.174 -29.181 0 -20.299 -16.069 -27.489 -43.135 -39.326 l -14.797 -6.348 c -42.715 -18.181 -71.05 -41.017 -71.05 -89.228 0 -44.404 33.831 -78.237 86.695 -78.237 37.638 0 64.703 13.111 84.154 47.366 l -46.096 29.601 c -10.15 -18.183 -21.142 -25.371 -38.057 -25.371 -17.339 0 -28.335 10.995 -28.335 25.371 0 17.762 10.996 24.953 36.367 35.949 l 14.8 6.343 c 50.325 21.569 78.66 43.557 78.66 93.034 0 53.288 -41.866 82.465 -98.11 82.465 -54.976 0 -90.5 -26.218 -107.836 -60.474" class="style1"/>
      <g class="style2">
        <path d="m 117.152 242.31 0 -2.538 c -2.162 -1.222 -3.008 -2.632 -3.008 -5.64 -0.376 -20.21 -0.752 -21.15 -9.494 -24.91 7.708 -3.008 11.562 -8.554 11.562 -16.92 0 -10.622 -6.298 -18.518 -18.424 -18.518 l -36.754 0 0 68.526 14.1 0 0 -27.166 16.168 0 c 6.11 0 8.742 2.444 8.742 8.178 l -0.188 7.238 c 0 6.392 0.376 8.46 2.162 11.75 l 15.134 0 m -15.04 -48.034 c 0 6.11 -1.974 9.118 -9.964 9.118 l -17.014 0 0 -17.86 17.014 0 c 7.708 0 9.964 2.82 9.964 8.742" class="style3"/>
        <path d="m 183.201 242.31 0 -68.526 -14.1 0 0 25.662 -27.166 0 0 -25.662 -14.1 0 0 68.526 14.1 0 0 -31.114 27.166 0 0 31.114 14.1 0" class="style3"/>
        <path d="m 248.029 242.31 0 -11.75 -37.13 0 0 -17.766 32.806 0 0 -11.75 -32.806 0 0 -15.51 35.438 0 0 -11.75 -49.538 0 0 68.526 51.23 0" class="style3"/>
        <path d="m 272.184 242.31 0 -68.526 -14.1 0 0 68.526 14.1 0" class="style3"/>
        <path d="m 340.366 242.31 0 -68.526 -14.1 0 0 46.624 -27.166 -46.624 -14.476 0 0 68.526 14.1 0 0 -47.376 27.542 47.376 14.1 0" class="style3"/>
        <path d="m 419.106 242.31 0 -68.526 -21.244 0 -12.032 54.52 -12.408 -54.52 -21.056 0 0 68.526 14.1 0 0 -53.392 12.314 53.392 14.1 0 12.126 -53.392 0 53.392 14.1 0" class="style3"/>
        <path d="m 490.639 242.31 -23.688 -68.526 -15.604 0 -24.346 68.526 14.382 0 4.606 -13.818 25.662 0 4.512 13.818 14.476 0 m -22.842 -25.568 -17.86 0 8.93 -26.79 8.93 26.79" class="style3"/>
        <path d="m 512.508 242.31 0 -68.526 -14.1 0 0 68.526 14.1 0" class="style3"/>
        <path d="m 580.691 242.31 0 -68.526 -14.1 0 0 46.624 -27.166 -46.624 -14.476 0 0 68.526 14.1 0 0 -47.376 27.542 47.376 14.1 0" class="style3"/>
      </g>
    </g>
  </g>
</svg>